<mxfile host="Electron" modified="2023-11-16T11:16:18.290Z" agent="Mozilla/5.0 (Windows NT 10.0; Win64; x64) AppleWebKit/537.36 (KHTML, like Gecko) draw.io/22.0.2 Chrome/114.0.5735.289 Electron/25.8.4 Safari/537.36" etag="s4kKf-dezqSaZkIsW4Fi" version="22.0.2" type="device">
  <diagram name="Página-1" id="bE1qTPRhqDWaUx5Q4rBU">
    <mxGraphModel dx="827" dy="1989" grid="1" gridSize="10" guides="1" tooltips="1" connect="1" arrows="1" fold="1" page="1" pageScale="1" pageWidth="827" pageHeight="1169" math="0" shadow="0">
      <root>
        <mxCell id="0" />
        <mxCell id="1" parent="0" />
        <mxCell id="G_RNrpnNhE9t_JsDFZRW-67" style="edgeStyle=orthogonalEdgeStyle;rounded=0;orthogonalLoop=1;jettySize=auto;html=1;exitX=0.75;exitY=1;exitDx=0;exitDy=0;entryX=0.5;entryY=0;entryDx=0;entryDy=0;" parent="1" source="G_RNrpnNhE9t_JsDFZRW-1" target="G_RNrpnNhE9t_JsDFZRW-62" edge="1">
          <mxGeometry relative="1" as="geometry" />
        </mxCell>
        <mxCell id="G_RNrpnNhE9t_JsDFZRW-89" style="edgeStyle=orthogonalEdgeStyle;rounded=0;orthogonalLoop=1;jettySize=auto;html=1;exitX=0.25;exitY=1;exitDx=0;exitDy=0;entryX=0;entryY=0.5;entryDx=0;entryDy=0;" parent="1" source="G_RNrpnNhE9t_JsDFZRW-1" target="G_RNrpnNhE9t_JsDFZRW-41" edge="1">
          <mxGeometry relative="1" as="geometry" />
        </mxCell>
        <mxCell id="Ld_wv_T6HuHl0N1Weq52-2" style="edgeStyle=orthogonalEdgeStyle;rounded=0;orthogonalLoop=1;jettySize=auto;html=1;exitX=0.5;exitY=0;exitDx=0;exitDy=0;entryX=0;entryY=0.5;entryDx=0;entryDy=0;" edge="1" parent="1" source="G_RNrpnNhE9t_JsDFZRW-1" target="G_RNrpnNhE9t_JsDFZRW-50">
          <mxGeometry relative="1" as="geometry" />
        </mxCell>
        <mxCell id="G_RNrpnNhE9t_JsDFZRW-1" value="EJERCICIO" style="rounded=0;whiteSpace=wrap;html=1;" parent="1" vertex="1">
          <mxGeometry x="320" y="40" width="160" height="80" as="geometry" />
        </mxCell>
        <mxCell id="G_RNrpnNhE9t_JsDFZRW-2" value="E_R" style="rounded=0;whiteSpace=wrap;html=1;" parent="1" vertex="1">
          <mxGeometry x="205" y="290" width="120" height="60" as="geometry" />
        </mxCell>
        <mxCell id="G_RNrpnNhE9t_JsDFZRW-3" value="DESCRIPCIÓN" style="rounded=0;whiteSpace=wrap;html=1;" parent="1" vertex="1">
          <mxGeometry x="340" y="290" width="120" height="60" as="geometry" />
        </mxCell>
        <mxCell id="Ld_wv_T6HuHl0N1Weq52-5" style="edgeStyle=orthogonalEdgeStyle;rounded=0;orthogonalLoop=1;jettySize=auto;html=1;exitX=0;exitY=0.75;exitDx=0;exitDy=0;entryX=0;entryY=0.5;entryDx=0;entryDy=0;" edge="1" parent="1" source="G_RNrpnNhE9t_JsDFZRW-18" target="G_RNrpnNhE9t_JsDFZRW-55">
          <mxGeometry relative="1" as="geometry" />
        </mxCell>
        <mxCell id="G_RNrpnNhE9t_JsDFZRW-18" value="NIVEL" style="rounded=0;whiteSpace=wrap;html=1;" parent="1" vertex="1">
          <mxGeometry x="50" y="410" width="115" height="60" as="geometry" />
        </mxCell>
        <mxCell id="G_RNrpnNhE9t_JsDFZRW-26" style="edgeStyle=orthogonalEdgeStyle;rounded=0;orthogonalLoop=1;jettySize=auto;html=1;exitX=1;exitY=0.5;exitDx=0;exitDy=0;entryX=1;entryY=0.5;entryDx=0;entryDy=0;" parent="1" source="G_RNrpnNhE9t_JsDFZRW-22" target="G_RNrpnNhE9t_JsDFZRW-23" edge="1">
          <mxGeometry relative="1" as="geometry" />
        </mxCell>
        <mxCell id="G_RNrpnNhE9t_JsDFZRW-22" value="CATEGORÍA" style="rounded=0;whiteSpace=wrap;html=1;" parent="1" vertex="1">
          <mxGeometry x="330" y="410" width="120" height="60" as="geometry" />
        </mxCell>
        <mxCell id="G_RNrpnNhE9t_JsDFZRW-23" value="&lt;u&gt;id.&lt;br&gt;Categoria&lt;/u&gt;" style="ellipse;whiteSpace=wrap;html=1;" parent="1" vertex="1">
          <mxGeometry x="345" y="475" width="110" height="50" as="geometry" />
        </mxCell>
        <mxCell id="G_RNrpnNhE9t_JsDFZRW-36" value="" style="shape=requiredInterface;html=1;verticalLabelPosition=bottom;sketch=0;direction=south;" parent="1" vertex="1">
          <mxGeometry x="302.5" y="220" width="65" height="25" as="geometry" />
        </mxCell>
        <mxCell id="G_RNrpnNhE9t_JsDFZRW-86" style="edgeStyle=orthogonalEdgeStyle;rounded=0;orthogonalLoop=1;jettySize=auto;html=1;exitX=1;exitY=0.5;exitDx=0;exitDy=0;entryX=0.5;entryY=0;entryDx=0;entryDy=0;" parent="1" source="G_RNrpnNhE9t_JsDFZRW-41" target="G_RNrpnNhE9t_JsDFZRW-2" edge="1">
          <mxGeometry relative="1" as="geometry" />
        </mxCell>
        <mxCell id="G_RNrpnNhE9t_JsDFZRW-87" style="edgeStyle=orthogonalEdgeStyle;rounded=0;orthogonalLoop=1;jettySize=auto;html=1;exitX=1;exitY=0.5;exitDx=0;exitDy=0;entryX=0.5;entryY=0;entryDx=0;entryDy=0;" parent="1" source="G_RNrpnNhE9t_JsDFZRW-41" target="G_RNrpnNhE9t_JsDFZRW-3" edge="1">
          <mxGeometry relative="1" as="geometry" />
        </mxCell>
        <mxCell id="G_RNrpnNhE9t_JsDFZRW-41" value="Is a" style="triangle;whiteSpace=wrap;html=1;direction=south;" parent="1" vertex="1">
          <mxGeometry x="295" y="160" width="80" height="60" as="geometry" />
        </mxCell>
        <mxCell id="G_RNrpnNhE9t_JsDFZRW-49" value="" style="edgeStyle=orthogonalEdgeStyle;rounded=0;orthogonalLoop=1;jettySize=auto;html=1;exitX=0;exitY=0.5;exitDx=0;exitDy=0;entryX=0.452;entryY=-0.017;entryDx=0;entryDy=0;entryPerimeter=0;" parent="1" source="G_RNrpnNhE9t_JsDFZRW-1" target="G_RNrpnNhE9t_JsDFZRW-48" edge="1">
          <mxGeometry relative="1" as="geometry">
            <mxPoint x="320" y="80" as="sourcePoint" />
            <mxPoint x="102" y="509" as="targetPoint" />
          </mxGeometry>
        </mxCell>
        <mxCell id="G_RNrpnNhE9t_JsDFZRW-48" value="Tiene" style="rhombus;whiteSpace=wrap;html=1;" parent="1" vertex="1">
          <mxGeometry x="43" y="245" width="107" height="80" as="geometry" />
        </mxCell>
        <mxCell id="G_RNrpnNhE9t_JsDFZRW-50" value="&lt;u&gt;id. ejercicio&lt;/u&gt;" style="ellipse;whiteSpace=wrap;html=1;" parent="1" vertex="1">
          <mxGeometry x="380" y="-10" width="126" height="40" as="geometry" />
        </mxCell>
        <mxCell id="G_RNrpnNhE9t_JsDFZRW-52" value="1:N" style="text;html=1;align=center;verticalAlign=middle;resizable=0;points=[];autosize=1;strokeColor=none;fillColor=none;" parent="1" vertex="1">
          <mxGeometry x="138.5" y="270" width="40" height="30" as="geometry" />
        </mxCell>
        <mxCell id="G_RNrpnNhE9t_JsDFZRW-53" value="(1,n)" style="text;html=1;align=center;verticalAlign=middle;resizable=0;points=[];autosize=1;strokeColor=none;fillColor=none;" parent="1" vertex="1">
          <mxGeometry x="275" y="48" width="50" height="30" as="geometry" />
        </mxCell>
        <mxCell id="G_RNrpnNhE9t_JsDFZRW-54" value="(1,1)" style="text;html=1;align=center;verticalAlign=middle;resizable=0;points=[];autosize=1;strokeColor=none;fillColor=none;" parent="1" vertex="1">
          <mxGeometry x="50" y="380" width="50" height="30" as="geometry" />
        </mxCell>
        <mxCell id="G_RNrpnNhE9t_JsDFZRW-55" value="&lt;u&gt;ID.Nivel&lt;/u&gt;" style="ellipse;whiteSpace=wrap;html=1;" parent="1" vertex="1">
          <mxGeometry x="43" y="480" width="100" height="40" as="geometry" />
        </mxCell>
        <mxCell id="G_RNrpnNhE9t_JsDFZRW-60" value="" style="edgeStyle=orthogonalEdgeStyle;rounded=0;orthogonalLoop=1;jettySize=auto;html=1;exitX=1;exitY=0.5;exitDx=0;exitDy=0;entryX=0.433;entryY=0.033;entryDx=0;entryDy=0;entryPerimeter=0;" parent="1" source="G_RNrpnNhE9t_JsDFZRW-1" target="G_RNrpnNhE9t_JsDFZRW-59" edge="1">
          <mxGeometry relative="1" as="geometry">
            <mxPoint x="480" y="80" as="sourcePoint" />
            <mxPoint x="682" y="512" as="targetPoint" />
          </mxGeometry>
        </mxCell>
        <mxCell id="G_RNrpnNhE9t_JsDFZRW-59" value="TIENE" style="rhombus;whiteSpace=wrap;html=1;" parent="1" vertex="1">
          <mxGeometry x="660" y="260" width="110" height="80" as="geometry" />
        </mxCell>
        <mxCell id="G_RNrpnNhE9t_JsDFZRW-61" value="(1,1)" style="text;html=1;align=center;verticalAlign=middle;resizable=0;points=[];autosize=1;strokeColor=none;fillColor=none;" parent="1" vertex="1">
          <mxGeometry x="475" y="58" width="50" height="30" as="geometry" />
        </mxCell>
        <mxCell id="Ld_wv_T6HuHl0N1Weq52-6" style="edgeStyle=orthogonalEdgeStyle;rounded=0;orthogonalLoop=1;jettySize=auto;html=1;exitX=0.5;exitY=1;exitDx=0;exitDy=0;entryX=1;entryY=0.25;entryDx=0;entryDy=0;" edge="1" parent="1" source="G_RNrpnNhE9t_JsDFZRW-62" target="G_RNrpnNhE9t_JsDFZRW-22">
          <mxGeometry relative="1" as="geometry" />
        </mxCell>
        <mxCell id="G_RNrpnNhE9t_JsDFZRW-62" value="Pertenece" style="rhombus;whiteSpace=wrap;html=1;" parent="1" vertex="1">
          <mxGeometry x="475" y="260" width="110" height="80" as="geometry" />
        </mxCell>
        <mxCell id="G_RNrpnNhE9t_JsDFZRW-64" value="1:N" style="text;html=1;align=center;verticalAlign=middle;resizable=0;points=[];autosize=1;strokeColor=none;fillColor=none;" parent="1" vertex="1">
          <mxGeometry x="760" y="285" width="40" height="30" as="geometry" />
        </mxCell>
        <mxCell id="G_RNrpnNhE9t_JsDFZRW-65" value="(1,n)" style="text;html=1;align=center;verticalAlign=middle;resizable=0;points=[];autosize=1;strokeColor=none;fillColor=none;" parent="1" vertex="1">
          <mxGeometry x="710" y="360" width="50" height="30" as="geometry" />
        </mxCell>
        <mxCell id="G_RNrpnNhE9t_JsDFZRW-68" value="(1,n)" style="text;html=1;align=center;verticalAlign=middle;resizable=0;points=[];autosize=1;strokeColor=none;fillColor=none;" parent="1" vertex="1">
          <mxGeometry x="432.5" y="120" width="50" height="30" as="geometry" />
        </mxCell>
        <mxCell id="G_RNrpnNhE9t_JsDFZRW-69" value="1:N" style="text;html=1;align=center;verticalAlign=middle;resizable=0;points=[];autosize=1;strokeColor=none;fillColor=none;" parent="1" vertex="1">
          <mxGeometry x="580" y="285" width="40" height="30" as="geometry" />
        </mxCell>
        <mxCell id="G_RNrpnNhE9t_JsDFZRW-71" value="(1.1)" style="text;html=1;align=center;verticalAlign=middle;resizable=0;points=[];autosize=1;strokeColor=none;fillColor=none;" parent="1" vertex="1">
          <mxGeometry x="450" y="400" width="50" height="30" as="geometry" />
        </mxCell>
        <mxCell id="G_RNrpnNhE9t_JsDFZRW-75" value="&lt;u&gt;Id. Cont&lt;/u&gt;" style="ellipse;whiteSpace=wrap;html=1;" parent="1" vertex="1">
          <mxGeometry x="650" y="470" width="110" height="40" as="geometry" />
        </mxCell>
        <mxCell id="Ld_wv_T6HuHl0N1Weq52-4" style="edgeStyle=orthogonalEdgeStyle;rounded=0;orthogonalLoop=1;jettySize=auto;html=1;exitX=0.25;exitY=1;exitDx=0;exitDy=0;entryX=0;entryY=0.5;entryDx=0;entryDy=0;" edge="1" parent="1" source="G_RNrpnNhE9t_JsDFZRW-77" target="G_RNrpnNhE9t_JsDFZRW-75">
          <mxGeometry relative="1" as="geometry" />
        </mxCell>
        <mxCell id="G_RNrpnNhE9t_JsDFZRW-77" value="CONTENIDO" style="shape=ext;margin=3;double=1;whiteSpace=wrap;html=1;align=center;" parent="1" vertex="1">
          <mxGeometry x="620" y="400" width="125" height="60" as="geometry" />
        </mxCell>
        <mxCell id="Ld_wv_T6HuHl0N1Weq52-1" style="edgeStyle=orthogonalEdgeStyle;rounded=0;orthogonalLoop=1;jettySize=auto;html=1;exitX=0.5;exitY=1;exitDx=0;exitDy=0;entryX=0.06;entryY=0.867;entryDx=0;entryDy=0;entryPerimeter=0;" edge="1" parent="1" source="G_RNrpnNhE9t_JsDFZRW-59" target="G_RNrpnNhE9t_JsDFZRW-65">
          <mxGeometry relative="1" as="geometry" />
        </mxCell>
        <mxCell id="Ld_wv_T6HuHl0N1Weq52-3" style="edgeStyle=orthogonalEdgeStyle;rounded=0;orthogonalLoop=1;jettySize=auto;html=1;exitX=0.5;exitY=1;exitDx=0;exitDy=0;entryX=1.08;entryY=0.7;entryDx=0;entryDy=0;entryPerimeter=0;" edge="1" parent="1" source="G_RNrpnNhE9t_JsDFZRW-48" target="G_RNrpnNhE9t_JsDFZRW-54">
          <mxGeometry relative="1" as="geometry" />
        </mxCell>
        <mxCell id="Ld_wv_T6HuHl0N1Weq52-9" value="Categorias" style="shape=table;startSize=30;container=1;collapsible=1;childLayout=tableLayout;fixedRows=1;rowLines=0;fontStyle=1;align=center;resizeLast=1;html=1;" vertex="1" parent="1">
          <mxGeometry x="280" y="570" width="180" height="60" as="geometry" />
        </mxCell>
        <mxCell id="Ld_wv_T6HuHl0N1Weq52-10" value="" style="shape=tableRow;horizontal=0;startSize=0;swimlaneHead=0;swimlaneBody=0;fillColor=none;collapsible=0;dropTarget=0;points=[[0,0.5],[1,0.5]];portConstraint=eastwest;top=0;left=0;right=0;bottom=1;" vertex="1" parent="Ld_wv_T6HuHl0N1Weq52-9">
          <mxGeometry y="30" width="180" height="30" as="geometry" />
        </mxCell>
        <mxCell id="Ld_wv_T6HuHl0N1Weq52-11" value="PK" style="shape=partialRectangle;connectable=0;fillColor=none;top=0;left=0;bottom=0;right=0;fontStyle=1;overflow=hidden;whiteSpace=wrap;html=1;" vertex="1" parent="Ld_wv_T6HuHl0N1Weq52-10">
          <mxGeometry width="30" height="30" as="geometry">
            <mxRectangle width="30" height="30" as="alternateBounds" />
          </mxGeometry>
        </mxCell>
        <mxCell id="Ld_wv_T6HuHl0N1Weq52-12" value="Id. Cat" style="shape=partialRectangle;connectable=0;fillColor=none;top=0;left=0;bottom=0;right=0;align=left;spacingLeft=6;fontStyle=5;overflow=hidden;whiteSpace=wrap;html=1;" vertex="1" parent="Ld_wv_T6HuHl0N1Weq52-10">
          <mxGeometry x="30" width="150" height="30" as="geometry">
            <mxRectangle width="150" height="30" as="alternateBounds" />
          </mxGeometry>
        </mxCell>
        <mxCell id="Ld_wv_T6HuHl0N1Weq52-22" value="Niveles" style="shape=table;startSize=30;container=1;collapsible=1;childLayout=tableLayout;fixedRows=1;rowLines=0;fontStyle=1;align=center;resizeLast=1;html=1;" vertex="1" parent="1">
          <mxGeometry x="540" y="720" width="180" height="60" as="geometry" />
        </mxCell>
        <mxCell id="Ld_wv_T6HuHl0N1Weq52-23" value="" style="shape=tableRow;horizontal=0;startSize=0;swimlaneHead=0;swimlaneBody=0;fillColor=none;collapsible=0;dropTarget=0;points=[[0,0.5],[1,0.5]];portConstraint=eastwest;top=0;left=0;right=0;bottom=1;" vertex="1" parent="Ld_wv_T6HuHl0N1Weq52-22">
          <mxGeometry y="30" width="180" height="30" as="geometry" />
        </mxCell>
        <mxCell id="Ld_wv_T6HuHl0N1Weq52-24" value="PK" style="shape=partialRectangle;connectable=0;fillColor=none;top=0;left=0;bottom=0;right=0;fontStyle=1;overflow=hidden;whiteSpace=wrap;html=1;" vertex="1" parent="Ld_wv_T6HuHl0N1Weq52-23">
          <mxGeometry width="30" height="30" as="geometry">
            <mxRectangle width="30" height="30" as="alternateBounds" />
          </mxGeometry>
        </mxCell>
        <mxCell id="Ld_wv_T6HuHl0N1Weq52-25" value="id.Dificultad" style="shape=partialRectangle;connectable=0;fillColor=none;top=0;left=0;bottom=0;right=0;align=left;spacingLeft=6;fontStyle=5;overflow=hidden;whiteSpace=wrap;html=1;" vertex="1" parent="Ld_wv_T6HuHl0N1Weq52-23">
          <mxGeometry x="30" width="150" height="30" as="geometry">
            <mxRectangle width="150" height="30" as="alternateBounds" />
          </mxGeometry>
        </mxCell>
        <mxCell id="Ld_wv_T6HuHl0N1Weq52-35" value="Ejercicios" style="shape=table;startSize=30;container=1;collapsible=1;childLayout=tableLayout;fixedRows=1;rowLines=0;fontStyle=1;align=center;resizeLast=1;html=1;" vertex="1" parent="1">
          <mxGeometry x="290" y="740" width="180" height="120" as="geometry" />
        </mxCell>
        <mxCell id="Ld_wv_T6HuHl0N1Weq52-36" value="" style="shape=tableRow;horizontal=0;startSize=0;swimlaneHead=0;swimlaneBody=0;fillColor=none;collapsible=0;dropTarget=0;points=[[0,0.5],[1,0.5]];portConstraint=eastwest;top=0;left=0;right=0;bottom=1;" vertex="1" parent="Ld_wv_T6HuHl0N1Weq52-35">
          <mxGeometry y="30" width="180" height="30" as="geometry" />
        </mxCell>
        <mxCell id="Ld_wv_T6HuHl0N1Weq52-37" value="PK" style="shape=partialRectangle;connectable=0;fillColor=none;top=0;left=0;bottom=0;right=0;fontStyle=1;overflow=hidden;whiteSpace=wrap;html=1;" vertex="1" parent="Ld_wv_T6HuHl0N1Weq52-36">
          <mxGeometry width="30" height="30" as="geometry">
            <mxRectangle width="30" height="30" as="alternateBounds" />
          </mxGeometry>
        </mxCell>
        <mxCell id="Ld_wv_T6HuHl0N1Weq52-38" value="Id.Ejercicios" style="shape=partialRectangle;connectable=0;fillColor=none;top=0;left=0;bottom=0;right=0;align=left;spacingLeft=6;fontStyle=5;overflow=hidden;whiteSpace=wrap;html=1;" vertex="1" parent="Ld_wv_T6HuHl0N1Weq52-36">
          <mxGeometry x="30" width="150" height="30" as="geometry">
            <mxRectangle width="150" height="30" as="alternateBounds" />
          </mxGeometry>
        </mxCell>
        <mxCell id="Ld_wv_T6HuHl0N1Weq52-39" value="" style="shape=tableRow;horizontal=0;startSize=0;swimlaneHead=0;swimlaneBody=0;fillColor=none;collapsible=0;dropTarget=0;points=[[0,0.5],[1,0.5]];portConstraint=eastwest;top=0;left=0;right=0;bottom=0;" vertex="1" parent="Ld_wv_T6HuHl0N1Weq52-35">
          <mxGeometry y="60" width="180" height="30" as="geometry" />
        </mxCell>
        <mxCell id="Ld_wv_T6HuHl0N1Weq52-40" value="FK" style="shape=partialRectangle;connectable=0;fillColor=none;top=0;left=0;bottom=0;right=0;editable=1;overflow=hidden;whiteSpace=wrap;html=1;" vertex="1" parent="Ld_wv_T6HuHl0N1Weq52-39">
          <mxGeometry width="30" height="30" as="geometry">
            <mxRectangle width="30" height="30" as="alternateBounds" />
          </mxGeometry>
        </mxCell>
        <mxCell id="Ld_wv_T6HuHl0N1Weq52-41" value="id. categ" style="shape=partialRectangle;connectable=0;fillColor=none;top=0;left=0;bottom=0;right=0;align=left;spacingLeft=6;overflow=hidden;whiteSpace=wrap;html=1;" vertex="1" parent="Ld_wv_T6HuHl0N1Weq52-39">
          <mxGeometry x="30" width="150" height="30" as="geometry">
            <mxRectangle width="150" height="30" as="alternateBounds" />
          </mxGeometry>
        </mxCell>
        <mxCell id="Ld_wv_T6HuHl0N1Weq52-42" value="" style="shape=tableRow;horizontal=0;startSize=0;swimlaneHead=0;swimlaneBody=0;fillColor=none;collapsible=0;dropTarget=0;points=[[0,0.5],[1,0.5]];portConstraint=eastwest;top=0;left=0;right=0;bottom=0;" vertex="1" parent="Ld_wv_T6HuHl0N1Weq52-35">
          <mxGeometry y="90" width="180" height="30" as="geometry" />
        </mxCell>
        <mxCell id="Ld_wv_T6HuHl0N1Weq52-43" value="FK" style="shape=partialRectangle;connectable=0;fillColor=none;top=0;left=0;bottom=0;right=0;editable=1;overflow=hidden;whiteSpace=wrap;html=1;" vertex="1" parent="Ld_wv_T6HuHl0N1Weq52-42">
          <mxGeometry width="30" height="30" as="geometry">
            <mxRectangle width="30" height="30" as="alternateBounds" />
          </mxGeometry>
        </mxCell>
        <mxCell id="Ld_wv_T6HuHl0N1Weq52-44" value="id. dife" style="shape=partialRectangle;connectable=0;fillColor=none;top=0;left=0;bottom=0;right=0;align=left;spacingLeft=6;overflow=hidden;whiteSpace=wrap;html=1;" vertex="1" parent="Ld_wv_T6HuHl0N1Weq52-42">
          <mxGeometry x="30" width="150" height="30" as="geometry">
            <mxRectangle width="150" height="30" as="alternateBounds" />
          </mxGeometry>
        </mxCell>
        <mxCell id="Ld_wv_T6HuHl0N1Weq52-48" value="Contenidos" style="shape=table;startSize=30;container=1;collapsible=1;childLayout=tableLayout;fixedRows=1;rowLines=0;fontStyle=1;align=center;resizeLast=1;html=1;" vertex="1" parent="1">
          <mxGeometry x="25" y="730" width="180" height="90" as="geometry" />
        </mxCell>
        <mxCell id="Ld_wv_T6HuHl0N1Weq52-49" value="" style="shape=tableRow;horizontal=0;startSize=0;swimlaneHead=0;swimlaneBody=0;fillColor=none;collapsible=0;dropTarget=0;points=[[0,0.5],[1,0.5]];portConstraint=eastwest;top=0;left=0;right=0;bottom=1;" vertex="1" parent="Ld_wv_T6HuHl0N1Weq52-48">
          <mxGeometry y="30" width="180" height="30" as="geometry" />
        </mxCell>
        <mxCell id="Ld_wv_T6HuHl0N1Weq52-50" value="PK" style="shape=partialRectangle;connectable=0;fillColor=none;top=0;left=0;bottom=0;right=0;fontStyle=1;overflow=hidden;whiteSpace=wrap;html=1;" vertex="1" parent="Ld_wv_T6HuHl0N1Weq52-49">
          <mxGeometry width="40" height="30" as="geometry">
            <mxRectangle width="40" height="30" as="alternateBounds" />
          </mxGeometry>
        </mxCell>
        <mxCell id="Ld_wv_T6HuHl0N1Weq52-51" value="Id.Conten" style="shape=partialRectangle;connectable=0;fillColor=none;top=0;left=0;bottom=0;right=0;align=left;spacingLeft=6;fontStyle=5;overflow=hidden;whiteSpace=wrap;html=1;" vertex="1" parent="Ld_wv_T6HuHl0N1Weq52-49">
          <mxGeometry x="40" width="140" height="30" as="geometry">
            <mxRectangle width="140" height="30" as="alternateBounds" />
          </mxGeometry>
        </mxCell>
        <mxCell id="Ld_wv_T6HuHl0N1Weq52-52" value="" style="shape=tableRow;horizontal=0;startSize=0;swimlaneHead=0;swimlaneBody=0;fillColor=none;collapsible=0;dropTarget=0;points=[[0,0.5],[1,0.5]];portConstraint=eastwest;top=0;left=0;right=0;bottom=0;" vertex="1" parent="Ld_wv_T6HuHl0N1Weq52-48">
          <mxGeometry y="60" width="180" height="30" as="geometry" />
        </mxCell>
        <mxCell id="Ld_wv_T6HuHl0N1Weq52-53" value="PK;FK" style="shape=partialRectangle;connectable=0;fillColor=none;top=0;left=0;bottom=0;right=0;editable=1;overflow=hidden;whiteSpace=wrap;html=1;" vertex="1" parent="Ld_wv_T6HuHl0N1Weq52-52">
          <mxGeometry width="40" height="30" as="geometry">
            <mxRectangle width="40" height="30" as="alternateBounds" />
          </mxGeometry>
        </mxCell>
        <mxCell id="Ld_wv_T6HuHl0N1Weq52-54" value="&lt;u&gt;Id. Ejerc&lt;/u&gt;" style="shape=partialRectangle;connectable=0;fillColor=none;top=0;left=0;bottom=0;right=0;align=left;spacingLeft=6;overflow=hidden;whiteSpace=wrap;html=1;" vertex="1" parent="Ld_wv_T6HuHl0N1Weq52-52">
          <mxGeometry x="40" width="140" height="30" as="geometry">
            <mxRectangle width="140" height="30" as="alternateBounds" />
          </mxGeometry>
        </mxCell>
        <mxCell id="Ld_wv_T6HuHl0N1Weq52-61" value="CU" style="shape=table;startSize=30;container=1;collapsible=1;childLayout=tableLayout;fixedRows=1;rowLines=0;fontStyle=1;align=center;resizeLast=1;html=1;" vertex="1" parent="1">
          <mxGeometry x="400" y="940" width="180" height="60" as="geometry" />
        </mxCell>
        <mxCell id="Ld_wv_T6HuHl0N1Weq52-62" value="" style="shape=tableRow;horizontal=0;startSize=0;swimlaneHead=0;swimlaneBody=0;fillColor=none;collapsible=0;dropTarget=0;points=[[0,0.5],[1,0.5]];portConstraint=eastwest;top=0;left=0;right=0;bottom=1;" vertex="1" parent="Ld_wv_T6HuHl0N1Weq52-61">
          <mxGeometry y="30" width="180" height="30" as="geometry" />
        </mxCell>
        <mxCell id="Ld_wv_T6HuHl0N1Weq52-63" value="PK;FK" style="shape=partialRectangle;connectable=0;fillColor=none;top=0;left=0;bottom=0;right=0;fontStyle=1;overflow=hidden;whiteSpace=wrap;html=1;" vertex="1" parent="Ld_wv_T6HuHl0N1Weq52-62">
          <mxGeometry width="50" height="30" as="geometry">
            <mxRectangle width="50" height="30" as="alternateBounds" />
          </mxGeometry>
        </mxCell>
        <mxCell id="Ld_wv_T6HuHl0N1Weq52-64" value="Id.Ejerc" style="shape=partialRectangle;connectable=0;fillColor=none;top=0;left=0;bottom=0;right=0;align=left;spacingLeft=6;fontStyle=5;overflow=hidden;whiteSpace=wrap;html=1;" vertex="1" parent="Ld_wv_T6HuHl0N1Weq52-62">
          <mxGeometry x="50" width="130" height="30" as="geometry">
            <mxRectangle width="130" height="30" as="alternateBounds" />
          </mxGeometry>
        </mxCell>
        <mxCell id="Ld_wv_T6HuHl0N1Weq52-74" value="ER" style="shape=table;startSize=30;container=1;collapsible=1;childLayout=tableLayout;fixedRows=1;rowLines=0;fontStyle=1;align=center;resizeLast=1;html=1;" vertex="1" parent="1">
          <mxGeometry x="187.5" y="940" width="180" height="60" as="geometry" />
        </mxCell>
        <mxCell id="Ld_wv_T6HuHl0N1Weq52-75" value="" style="shape=tableRow;horizontal=0;startSize=0;swimlaneHead=0;swimlaneBody=0;fillColor=none;collapsible=0;dropTarget=0;points=[[0,0.5],[1,0.5]];portConstraint=eastwest;top=0;left=0;right=0;bottom=1;" vertex="1" parent="Ld_wv_T6HuHl0N1Weq52-74">
          <mxGeometry y="30" width="180" height="30" as="geometry" />
        </mxCell>
        <mxCell id="Ld_wv_T6HuHl0N1Weq52-76" value="PK;FK" style="shape=partialRectangle;connectable=0;fillColor=none;top=0;left=0;bottom=0;right=0;fontStyle=1;overflow=hidden;whiteSpace=wrap;html=1;" vertex="1" parent="Ld_wv_T6HuHl0N1Weq52-75">
          <mxGeometry width="60" height="30" as="geometry">
            <mxRectangle width="60" height="30" as="alternateBounds" />
          </mxGeometry>
        </mxCell>
        <mxCell id="Ld_wv_T6HuHl0N1Weq52-77" value="ID:Ejerc" style="shape=partialRectangle;connectable=0;fillColor=none;top=0;left=0;bottom=0;right=0;align=left;spacingLeft=6;fontStyle=5;overflow=hidden;whiteSpace=wrap;html=1;" vertex="1" parent="Ld_wv_T6HuHl0N1Weq52-75">
          <mxGeometry x="60" width="120" height="30" as="geometry">
            <mxRectangle width="120" height="30" as="alternateBounds" />
          </mxGeometry>
        </mxCell>
        <mxCell id="Ld_wv_T6HuHl0N1Weq52-90" value="" style="shape=stencil(lVnLchw3DPyavaJIgs+z4/yHqyxHW1Eklywn8d8bzBZnF70zrfi2GjWGxLuBOemHb4+fvj6cUvj29vry58M/589vjyf97ZTS+fnx4fX8Zr9O+vGkH768vD788fry/fnz5e+vnyZy/vrr5e/5hn8vckFSnUIp/Lg8GFla+e/J7xf80/n5Bh+lJo+PUtIxXkWHw/choR7js/To8U2SHuOrFH//XiSMY3yXCvi0TtzXN8gABYJkokBUyd0JtC45E4EqAQRMKSbQZagXMJ8RHcxpI3sBlUROMC8Mb6WWJDUi0CXAlaJEIqBm1uYFggQWRyrNC9QuneigVXLwAm35fl+gr8DfBKpEcqUcpHmla6aezkmyD+6aRImVskr3OpSxnuwLmON8LBWePtlU9OFdeCxlMyJcKUlgVxqiXml7EsmVSpTkr2SXZCWmqBTvBzNDIH4odYXaJrCVtX0BCzUvoEMSsVK1jPNWmuHYiUCR6K1kAT9Y3etoVo3rkrsClpAQfGlIIZXeigoKVOkkWpuFmreS1RGW021I82XGKhUt3hHD22ohK8Zd1403gbrsti9QpHilI4+lXmX4qhGjNJIPvUvyoTFWRu3jB9axJp3YaITl1a3ILD/u4yN23EKL2FCJvplYwWB4CyOfzkrjdJS7XKOEYbTVyrYgWpRgHz/Qw9Z4SFQbvmbEM3sObFSB9lrDd8RTe467gOP+Gkhg0qqvB4QnrHp+dUAkpWse4LM4LzJwqHAHPGOc9wYtkji+FsAXkmAzIBLgWU0ZdwlZVkYc4TWAvoUHXFKwP2OoE+/fnxbdO8RDmZbA7ZmghlJKMfX18WAVicdPxgSI7/g3AJ4RkBk/iu9/JyEx4VmfnPGvYJ/ICvTAJsYJ1E5CppVBhwd4g+rqs4d4YGiLUB0aCDtG5AFagWNKfsfBv4S3DgAD1HrBYYfx+E45wdjy9dqxGUuxDgkJaUMkG4ZmCx4oQFM4SAUeFOlcYCSi+Ji2MZV1MWMpCkmfKY2wMT2C0pXONsa0oEwbl2ONz7gcNrLIqVnCK81ORhzX7lqxRR4rvcZ4FUppp6lmnLpAb7XJg+TaZO3e05pF35kLQKBKZaNKWd19EzAdCEGbsw3MZ5EuB2x6wvrC54Kyzd03EyDjODYBAkfLnZZImzEz9PzIJ/GBfrAzBznB5mQc3Su9Ur7bV5RBy1guOLrXRPMhKzaeua9gy4GEg3VttPLlgNy9buTkaOcCraQFOt3oFgg3mykWGqp3JyjNOEvIAAKZFoG5+4JVVlkN+HC75h1ndYSNIOlu7G2denpuCOGEbeo52kFGX4xt1Fa+5cS9q65N8r7ANtnfLGrZHNKR9Xe+vqtIGvrgCYpj1Eh8Y4kd1GhBIO+P2EtGXTx3Fx9wCpk0i+gbVupeOQPnwUE04wHMQAHn6ivvO8DHing2dwUMCMOzOSSskN/wncZ0wDwefHFyx7Kvm4X/+f4qhb8fAq6sLD2yZ0A8m0sD9nHDsyLxq19+3sfbj+tnpi/np6fLV6rb/+NnKXt0+aSlH38C);lineShape=1;" vertex="1" parent="1">
          <mxGeometry x="142.43411845890193" y="784.6816390291579" width="144.52288861102477" height="20.88170049341352" as="geometry" />
        </mxCell>
        <mxCell id="Ld_wv_T6HuHl0N1Weq52-91" value="" style="shape=stencil(lVfZctswDPwavWJIELye0/Q/MhOn9tSNM457/X2hKnRNUNo0bzK9KxyLg5rC3ev+4WU3sXu9nE9fdz8Pj5f9FD5NzIfn/e58uOjTFO6ncPd0Ou++nE/fnx+X3y8PM3J++nb6Mb/h18LLVOJMYvd7OXDk3N+Dzwv8eHi+gXOiLAb/drCKD4VC7vCePMBLpRgN/s3BVXzyzd2GDxTqNj4zudrhE7mwjS9M2fjvKQNC1fhSR9AMCQNCouj7CBzVBAiVpE+RMAnIqXfOJilKS/O6CRW1dIQqlIFPRX3q06RhVaBDySR9mmqh7AFBqBoLFVaeKsdiCcilrKU3WEDK5TxYKK261gmRpNosoW7IKlMvXA1NmS1CMBY8MVBaXfJ9MZVCBQWdmkxXQoI65ELVECIxajlPkXuCtIrfKg1OAwFkST0uYl0KqPiqbaD5FRk2kI1B0wBcmmXqCXoieM44U3yBKu5pE4MWH6MWLcSGcD1ZJ0Sb1rmBkA7BFt/NqFpnuJaU2ykACNqjdZgzCUitDVGHHkUbSFvObESdlQm5pD1qYmA8NoSKqb76noWPEXRWmh6NEeswrEWJzeaWcKXfKCHjoIONgaVdJVYJsbQleC2mTAlMMinke6V9hEqrx2bJeYF3gfGy5DUqsEaHy5gaQMUaW8ff4NHtR8hn608GOeVWNVc8Q7ynYOL1cHK74RJABbg/TDBVEIyXAZ7gOh+cEXghGWK9DrOtVPYd5tuw/D+lHIQPheCI0ZD72KX/Xbg+/Pu+eDocj8vnye3/9ntEj5ZvmXD/Bw==);lineShape=1;" vertex="1" parent="1">
          <mxGeometry x="279.1814391094149" y="782.1754316642568" width="10.434061230519546" height="11.29125528937766" as="geometry" />
        </mxCell>
        <mxCell id="Ld_wv_T6HuHl0N1Weq52-92" value="" style="shape=stencil(lVrbchwnEP2afaWABhqeHec/XGU5UkWRXLKS2H+fJlvMLIeZs6U3ed3NQF9On264yKcfj1++P1yi//H+9vrnw79PX98fL/LbJcanl8eHt6d3++siny/y6dvr28Mfb69/v3y9/vv7ly7Z//rr9Z++ws+rXlDna9eK/tf1l9Zc0/9/+f2q8Pz0cquQXUuoUCJRSC6FWaG6UoiCuNhmBXXVE4XgGigUVypR8GPHm0J2ks8Vmgt+lhenxEjqMqwfnZdz+TxMvsl7F8j6yZV5P7UOmx3Ki0uzk2sZvxzKR5dnH9fklBnUqczy5sPE5P3ssGorkJAwf8F+vBOyH/vfeT/anA9MPszrqw4Ln8j72f5aXKD7Qfk0TnS2nzl+NLpG10+wfnCBxIN3dV6/NCfEPmFkxyav44sn8m2Ot5JdIv6NAxA2eaH2X+K58PhJTmb75EbtmV2c4ydbfhF8MO/P+89lIMAJPgRYn+eXfR32L84TfGjor2weZPloCTYDUGouM4xePJyUIqKBusxVIJWRFGdlo8w2Son6oBem+dDJYIxtSV2EM3jXCEqHirAobSxxrNCczocWwxWSlz0x50CSMqDgWCG6AF9INPJ66sAXDFpI6lvu4JbCyKZjheJkBncLRwZ2lg0QSxbvnimYWWf4sm8m4mnbsc75Y6dqDF/E1dnT3W7ESpKXM0SaoVIHQG8KGygfQ5jH4Aucd1n0Qz5Y/LKin7LLs5UCR/lkbppDIxRalrNH3LakTYwXxUH8NoU0zHCskIfVNwWhwZcNBEAhUj9Y5ZCICp5ApZUmQD4DT2EKgmzE4FmJH4oFc0QFT/xQCsJ9o5FRKlL46iqBMfXIlyuNC2MrCvzLVUavBX2gA3OO5dNgBxtfcI14QAvyLyvnpPSoIuSV4cJj+TqK61afhwGO5Zc6Yu0KsY+x4wr8wnkS08a+K1RCWqZqHHVyl2f+te7Bo3wgAV0zZoDQnLRuJmaQZ+ylLv7aAupY3uIf1w+kGlQjT/N54zDwMV3zyHXi+OFY3vwVQJ7Fg3Wf0LNHyiqsuwX/hkECjuW3arrL0/3nwRV3eYaIbcGrQCG3bfA05D31V2tYNTxt11tD5ugplzV5qKyetqN9ooL7p3S/uZrxvMw+bcDfLk95rF8aWE/p0D5D2uUZgPYDoHzhBwYG6Gn30R2A8pU7GGq2HxY+DSB0GAMsC9CG6ytbv2IBM/tw+YIByrqCfSK3y7OC2veD9mS9WU9IAXlWILs9l4Th9o9ozzsJlnD/dxK44P5Zh9LjGfcTeLw1XJ/Nz7o8xhstAAfy+U7+4v4Zi+75iPnLCM2H5ZdWPdCJsBUMwYJKC0Ae45GbgsriP+HALdJ5lRVUKSBPC2rEeBZesMMIxxtCwwjiEm9Ce0kjQBX3w/ZvBEthFkPz1wgc4E8abdkZQcy4PsM3I6AJ5em8TQafvSHQJH+NEOPAjc5IjHBD15m5/ZcB9XYLc9ZgNGxImD2tgVEYqNL6ogUbeaV4qBnHVEr7fmvwCq7P6q/Gg4aTre8xHuoY+Jw1wAo3TPS+qChORhqdLJa8zAj8aCHOZgQ4DQq0opZlBBa2JuJszgF3OiEOFns2SQHS2i/yCEjkdd6U6NgiC47lTYGO8T2WsZApbiVr9OAMhVopZWTSQfkYT0bg30zl2CwlhYGcN4NC1sxLRcdZsYxsdlkQTK06sewUQ9NlOsquXyQu5Ti7yM7glxlyoV+w/IUOsSMA+UIHrGVKzUbCtuM8f0ECHUX2GceMYWJFnIBG5wRQxBPtCnqXPSeQuZJd88QF9kTp8D80rFPSKAhYMANxt/hlN9mhINKnSDPOMhioVEp0+N9BZTZrKjT4DOeguUlKYcaQFNhgavy6fJmPZh5LFUf5mUOr4jwmp7HCcXVAOpgLHQAW9HKuo6E6BmJ8ZFJ4P5Qw7Kx80fsavNSy+qgs+xe6k+lVYRyJu8krHZgHfF/S79epPNB9DbT/8+gvI0ysf/VI3+++P0D5QqHLY3waoWTznrC8t6j85hULTr0zsMJ5duUDyTi64U1eKBNZ7h+swSiMJuB8uk+sSX5lbCesAWMDwILkrjd4JP4r7qfx9xMN34tYQ5vI/kPAfto6bNYAdsyFF1aFMmzjlnDh2nhLERYMapW/USqI6vuY+FhBkc/2MRP7gmL9bvwerisoKrA2wRSAC3YF5jjFQWMffbGHIEcK+tEt0dd9igxhnxafKgRUYNkQ1ud6jd4P9nvx9QvcrPAA6WakfqYB7wPuf+KDDznvK9gf+7vRb0/Pz9dnp7f/j+9M7afrG1X5/B8=);lineShape=1;" vertex="1" parent="1">
          <mxGeometry x="161.74995483969724" y="790.7926945274676" width="122.88060583400897" height="193.78306031847023" as="geometry" />
        </mxCell>
        <mxCell id="Ld_wv_T6HuHl0N1Weq52-93" value="" style="shape=stencil(lVrLchw3DPyavbJIAgSJs+P8h6ssR6oolktWXn8fMCrODMGZXvu2WqF3SKLReHBu9OH746dvD7ccv7+9vvz+8PfT57fHG/1yy/np6+PD69ObfbrRxxt9+PLy+vDb68ufXz+///3tU7fsn/54+av/wj/vuBiKdFCO/44vYvr/i1/fzZ+fvh7MU2jePNVrcwpVnXkF5iVknsxTyHJtXkOszlzB2jWkPJnnIODXUwo8r4ZCycCegs72HAoDewklTfYlCAF7W/989hIq+P39NIZ9DdqAPYc6/74GisC+hjr/forwQCmG5gA5pAIAHGKZATTWeA6oocQZUALrNYBj0JmgqYYMNs0ciGZACw1QmutYwMa6CGlU7N9tBuSQAa2L0XIOg7wx8RwgYwEboISKlmREmP1gvkfUlhzi7IfOJeA4Yb9pwqEvNSQHIAzQUGfH0aY25+KynfoGqIGAHyoHmTdNCk+pStAZwCavQAGqjnDZADyO4RTQUqCZGmy+B/HQyO+BNURwrK140SgJ0rvV0OZ4KBblCKD+lIy/BDatKchMjdICgxBVCmleksRAwHFqbJ251AmPlmTKPkec0PjmHCBeyKSM7HUOMNlyTxDoBwM0B7Bv0KbbyAYbwOgIpNIAdc6H1Y4VLWlJcDVB9TYAO0AeOnIFELckgjnXAG3etEV5QZtWT+9aoPIZQGcumSwkvGl1m64wgDqgeQD09AowV+JNuyxqSlVQKROjTxAtjhxz+YjZc6Zt+Y7n5mNqGdNVfTljAMWecypg6tnwE/J8ro3vsc+fUhmMvwo5x+8msIYzgEujps+ooDfZqG5JDTYMutVTB0BDAFn8oDioxSdqvaMzW7WzAVKIyA/F510DVLQH9n7QjFXA8jh5gKI9kPeDfcPI0zTC5QBo6Fizl29bJMyKeTDnAICeTr7os4NGNZwu1Xp3JXpCHBXbBhBIb6Oap4bARG2A6AAVyoyxn6MHoCrRArJWD0C6ZIDs2Nqgtpqo+D1s4nkOYF87dHlGT+BRde6t4pYBrhDEyyNQ5WoRlBYAOlcaAXbcNdrEMsxQhW1TB5AHFMQ+AxQPYPyEtpxSRk9gn1H2ousKkJdTQqWuAVxN1gGYG17JdMx1rgCr4xLydBkReTwlHBA+oyhsOdoyuFLc+nXAsiRB9C7j1I9sRdRgX4juleYVQOoCwBHHbhRyP6jTuibEPvKVaN81cgSdKBOaGPWQWzwHBf8sqFF3uReFRzLhJ+iyJNQR/DxAfKPVyzpEV1k2XXFKqYt8C84QdfG0wEbL8qiQB8BJhcX8UjxANdZFZwocV2r0czUrgGB5khZh4tEiXI42XIIgOH3UvFSuNKL2CuCPlWBM9+GJ08oMez8lPwsxAKy+eWFrCoQ6ZF6KuDgS61V972vjCHNWLztdn6VjLnzZozhAg+TTJeJ6HYg2Xb22WtAq7uQkeUBCe6h+8GBJCfZZbdk0jyuPKwC7bpRwADWfs6xnb+iUms8PBkCqYQA3fexzB9xR6xxx9yYbbZnn4OFJB8ybvjeeWQF3R33rxAiOmNoyAJK7p+SeUPBQdznWPojDx9rWUR9+gizDRHSd1bsqd6xpTM9/MIBqxGJcfUIRHeX4FSDOmxZ852cyw/OxioyQ+kHlkzLy6pUYt9nTQrBw1aVekoxnWHnUX4fxPdTW6P1QGpSZpl5by52pwHI7VRhONnp5P/uhJHhTvuvcALDC2ylTIXcrwgJFwESFl8smxNa6zOHYtBVQoy51K+GexuLL3XTSlsROAfsNxQYoUDX6pcm8aSI4fDQyOy5Rgjdskvz8JytU785Nd71bYY4rxS8pC/RDIT//yQy5VKJna85w00Y1J/c5wlc1mMZF6NZbKgwgjsvNf4VibMxxk5BUYGvZieBeRmD89sI2hd4AGZLP/OrK0JTgJCSzv1BQqGN5eaOlwUI6NT+awZcDSTwvcEuWyL8bwTBb9eNwV/KwxG1jpLKboztU8c1VhiXJMgRNsMmgcdS7OWr1lk4vwjlGHNcLuzlKgXEE08EcrD36DizCOj4OudnN0a1VHO3fwRxE7nJ1GGHrdWKOhCR6LYxwlBL9K2gR9lBxDCp3czRMjV4Q4qjvrkiw/Dp0E3uKoU7/J98UvGtuH/aXEr88PT+/v9N4/L9/idG+en8Bkj7+Bw==);lineShape=1;" vertex="1" parent="1">
          <mxGeometry x="457.428317502407" y="784.4262448535828" width="124.22131489123558" height="198.6348638076679" as="geometry" />
        </mxCell>
        <mxCell id="Ld_wv_T6HuHl0N1Weq52-94" value="" style="shape=stencil(lVtbchw3DDyNflkkwee3k9zDVZZjVRzLZTuv2weMQmrYmOmx/6TdxiwfIIBucB7kzdcPbz8/PkT/9duX598e/3p69+3Dg/z0EOPTpw+PX56+6V8P8vODvHn//OXx1y/Pf3x69/L/57cDOf76/fnP8YS/X+x6c6EOq+j/+f+T7rr898kvLwYfnz4dDcRV2Q2a6+HaoDWX+25QXerEILlWdoPipBADP79eBtl5f21QszEQJ5kYeBfAILhMDIoOIG4GrbtCJl087kOrrqVrg5xxWVt2nQwpBxfhF5LzxCBVJ/tOt+hiJAbqGn438C6xX9CNS5tBbfMRpwZSnd8nXYvrlRgkXFbd+9iIQXACvyAuk1+IzbWwGwTXySrF4kLbDbyL5MRFHcC+D6XNT84NwvT+ZVBcJb4Umiu7e5dEfSmU6f3LQOYJOTdILu87XXShyT6EiL6U+xzkuYFOel/W3Jwncam7tq9qLjwszSVc+OwCeb4e332JstADra6970GOdNM0Ju5+pwe8kvFrvAC8d50saJqjPeDp6Z/fTnzqLpPniyv781Oj41EH64gXdjBxfxMPqNFlj3ghsShidEx6yNi5dzEhnh2ZiGEiZVeIv8Xp7Qe8ZyfMVXj+OqMXeDjBGu478bcwV++AT2Q99fzC8yPdLz+9/YBnkd1jyErBFYqH85UCXU89HTBfTX50/FBSiEYk4j+Kz4iPZD0Vv6+nrELsO/GVptYzPKvSFL+fFynTA6/wEfEs/vgZjRc+04SheI/4QNcTSg+tLVgJqPiKeE+ytsf4L0LzkZ/F28JHmrPP8Ow8ejyPWho1/nyDj3z8gPc0353hw488XzN+4c8XxAfqbxBvtUIoHO8Rz58P50UrhEL9J+/nJfJ8FCbjWfjsGs13cc8XmvEZUZRZ+h/w7Hylmd0WXmhZXMz6r4x8ge8wHvVnEn/a9N4DnlWsi98tvHeNxE8tWKWigbAELBhRQqcZUotuSJFqwGiulvVQdCszYGdev04NDYQcSp1i2nctaJZhVZkpa9SAlSmDLUU0oHVWmgNYBroMrLBU8tPQgG3ccKXd9UKmkon6Eg4pz4W+Yq2400uAODdQqg7Lyqs/WcHhYMDSmVYbUN8Ens+GGABziJygxBkPDwas4tICFyiZnkHmfMoAoqAB/YWOQTJwkpVNlawGmURJJZHWwBNvHSwV9Lq59ef4inVsp2E1d6MS0Rkr70+gW9GytKjXgGzF04JWfaD40DBf6szar3h2EEpHHlEnUTun9ctjlvJBaXoV5NFlhsxzvAlfhZ7LWjAvrwU7x7fJkhavoWVm7XjIEhWrmrIwqMOnwHyO11MPeZzLz4L6XKDjb1on7PP1lGa1ihltEYUrfC+IJ5F6yOc4HqZtt466gaf+oPgaAc/KtG54H5eFugnrntLE7vG8rML28vke8Myfdb69Ap6VvYpPOP7O8KsbcsCz5oWpM2/wFWs0T+XmZuK5n8LYlf+DbuapJK94OI+e0uKBR/9nNHSMB/crsudXLLYWkbpcT3y+J/G/NSzbb85jmyrZAc/ilckvPL93j50mT/PROC+IFyaTe8wXfibky+fj+jBa3I0Oo/7G48MP4VtB3T7SRpziI+Yjtp7N9OGEyorN6OppCnuX+asCnsnALZo+Be3yNaPrZrq/zWNNzLnM6OhBb4nK6rWijlfoeo5eLvQQ6XxHO88DPrF6KSDFrZQSa31o61WyPlp/SgN8ZvWqma9SdF4/R2hdzw+u6nNY/05lJ63/PeJZW0D5BcQrJTCUYGQsiAPP8EqRkISFqa1ekTBrkMmepY7adIg0qKdimGekNE+pKlTdQ/1hBhGbxEFo3ZRMHhiEnmkMDYmkGrDILgUjdcg01EkydDtT3xsKNsyh0OL1VWI+GNBWejdzKJQ+DPYIQ6q8TZmxHlUDRhA1/qOEtu7wXEloEIHVgF5p8GZInTqffo0Cl0ZB1qyvGIRDp0qMOkIzYikL2+qbQAvGrJhBnDLBQe+l/cow29sHA1aJB4+ZYSjWLDXPxx0UcVbKVlPpyOSyF4o4KB8x0dSWp9csfKYBIKESM6QMeuMA9G2dUWQRCZnQTUdFjELPOzZixs87QoLM5qbjZPA3Ha0zPOuYWTzvyJ3hmT8IMr+bjuIZnsVSc0PkpiMqqAffdFwF/f+moyvYobrpGIthBrwjLaj03HS8Bc/jTUddMGDddOzt8/mNAIvnpaydL7/RIEYp7FPb+z5/S55KqRpPDJ6Vsgk7uilQKTuZG0CRUsuE+SLxG2EJ42ESSu0T5pdxo4f1HrAA1CqVxfNsbtDwplSeGf2AL3Q8UP2NG1XsyuwJnlHLbNa/UipnOg+p0v3Kk7gtfJtXdC/yNdwAUjyT8gqeR+UtrHtlmFn2NzccgXIonuWLRYQXPnApBsvQHGn87KjkKRNk0tDgkeZKJ6NxWvLB3fdcaLv7tYO5DCpl66MLC3PolKAoHUlw1zfMMHNu0JA+FKGncui5YJA4QTE3L0vhfMNIGqXRwlg9DzTV6qnoI940+QIvncxt0yr09odkvF5S+fVLaSgJ1EK9VYM/XHCujTfUTTxtNzd4O16ZaoESiGzce6iVLGJXFKNa5q9FBOzetUpvFaurQRE4GjgsiAXM+j1QgWy8cQANdeEdgzCz6jJIvEVVMFF13tPt5q5kr5Qp9mzeZ2lU8eodQ6V+Qtty6zLr0YD1Dcydl86Fx+DNjbrO37E5t6DNhm72ml/S7R39dXzC2jEd/fXu/auO8bt3WpXr17jXXKEd73PhFRPe41IL6x03PwFN4btJ/PBravcG+sfrW3Hvnz5+fHmp7vg9vkWnH728gSc//ws=);lineShape=1;" vertex="1" parent="1">
          <mxGeometry x="231.0467095644749" y="624.0010428456108" width="51.51571667139888" height="203.56497411006967" as="geometry" />
        </mxCell>
        <mxCell id="Ld_wv_T6HuHl0N1Weq52-95" value="" style="shape=stencil(rVfbcloxDPwaXjW2ZdnWc5r+R2ZCClMKGUJ6+fuKModgmbOEmb4djFbWdSUv+OFt9fS6XKTwdtjvvi9/rZ8PqwV/WaS03q6W+/XBvhb8uOCHl91++W2/e98+n36/Ph0lj18/dj+PGn6fcJFUj6AU/pwOOFCVfydfT/Kb9fZSPlKRDpAS5QgAlVoPsJMU5gEpk4YekEh4HsCJWuoAjSqwKEcKsZMXagrklULpY0QFOCCFWu4dIC3z8iVTqp18oALka6QsTj4Ae2ojdRmAGWtCqfc3UwHxV6sYl7BACVygeQBUihUAKuXWF51ggFJ0KctTEucAte+DnImR00raJ1ksSgkD+ixb3jO4IYZzWieEMkUUV/VxVSFGgOY7xyKdGk5E78SHiusAoeoAZiRKBJP2zXkRh+uIRKH5KwTZFHw1mRMMqqmpb1AtVBCgkThAhpRhAB/XhE1qvprMq4SdDo4ksdMaSfpEtDqpmMtc6sPaCq4+62G5C1BI010mtYnoPuu0Ui5DWHHL+TxY4jDRtKE0BEyfI5WNxYduqNO0+WR5mz52gBsNZBa7AXe7R8vQo5AGAunQo4horEfLSGUgrlYJtXfiSJboBismBzA6/s8A7n2wEVHQpG4U3RASCmB7s37xY04oI5MKRe4Ath9CYkp+ObHtBA3SWnxpRHM6zwOKjZQ+SpHhfijGxsMNAnyQYcGKMnXt9Q2RqQ0LjYKwciEZooR4Jumwdhvdgkzb3+wAmCvNYsf3bGFAM8uzRg6QNc7teJaPsEELhUG+Av3ZvzNMvoGQsicMk0dllPzWYP6iHJu2viZYp7fWVXnbol2nYcY7z/uzfJ3KdkbebZMsN+xxa5Wt0ALqIfjRyTxpmIlPHOqtAf13v1RvytvHx7P4Zb3ZnF7Vl//7Z7QdnZ7g/PgX);lineShape=1;" vertex="1" parent="1">
          <mxGeometry x="267.18612412712105" y="620.3038023181466" width="15.721856643681804" height="13.178434762297456" as="geometry" />
        </mxCell>
        <mxCell id="Ld_wv_T6HuHl0N1Weq52-96" value="" style="shape=stencil(rVlJchw3EHzNXCuwL2dZ/ociRJkM06SCorz83glPoGeQ3Z28+DYcZg2AWrKygEv89OPxy/eHS3A/3t9ef3/46+nr++Ml/nIJ4enl8eHt6R2fLvHzJX769vr28Nvb68+Xr9e/v38ZyPHpj9c/xy/8fbVz5tswCu6f6xe9We7/ffPrFf/89HKH91bTii8SH625FY9v4jk+W8wr3ltx5/hqwS/41qy0c3y3VFY8VgzivN4aGWBDXhgkC+sJap0+OzYoVsggmVMhaNbJwFnO5wYIWlyDUKq5Igzi9PlmEK0KryJsbU2j4qyLsCFuvS4Guck4IHB93VLe1jxOPASOVoiWxaEjEjOsBt6C2FLM0yfTILW55rFBtbJuKRWrIpdin6m2GSQronqSt0QrBFk+KVqkFZys55TNr/UQm1VxaByRAgc3OJGtcGJa4wBHJ7VCt9pXg2ReuBVxdWvgYpCBy4FrGtmlAodUi2scopPJl9P0+jQYTCWSD9lPbg3Ngoh0BlPSCoiDYmLQzBrpUeXi0KPk18CFJHMJpOJWt4J4gjLIFtbuA2rrwkvgubxGGg1P1UMBzawr+C55qQYuINCzSm+Qe1m3NBqAOHRFAdEKuh4qWGiNNHpSFJFujuneIw6CWxvqIa4GYSb8sQEayppL6KvSIM8GtRm42cSODYpFEjIylVrlHen+A1lByV3lATqE1ZpIZSqbYzyYe40ydIkgjB4sryFI+vfRwIlVJb/0NGt9q5zZvI7xbRLixLtJssf4bm6HF/HtWxne4dV5O+e0mzl7hm/8+1n5pzM7OilHvNvOt2W0rLG+ZyIdgF0XDJLegc9E77LAgA+V8Ekl6L59WBIFCXzZ7UfjEzXAOcqc4WlS2JT9Gd5zvJL+fUesqwug8eTlZBsAPnLCSQJqrB3BSCofGrcZNyv0NB92BakLJu/2o/yPfM6ET3o/nfdTBUEcFqQXc9pYoBJeTV2DUTLhlVYZjEXiRo4fgxF3Bfl/4iFUVodmXfBxEuat4wXlnzD5766jKgLyk89uHVv5p3XueH2qx7MOn0jU6IqBhPDrAt5LyoWoqZUNunBpS6zZobO6FmZ0Zig5uYKfk9KdVlRlUzvTENRoFWGodWdQJPHW3YQ5FLU4NCQ4zeHQ7KrVVMcT5uAKNXfsesFoNmoUwqREtRxl8WAUoqkAeq6LXCqe6X0ITDVhdk4+1FsR9YD5z5OgaJPRjg3K7tB93lSdzbDUEqKmYEzJdJGFwd2LwGEOp/SOmGyUl3a3RlHr6gyZuB7649sKT3cJxaq6otnNsLFJKZvyvGHdDLrMpZSYWZPXWwqcGilKEkiO1Ts2qWgGR6RxCG5oYktwIsUhbQL62CCxW7MWwEg17odJFlDcBN1mUKQCQH2R5EHRRnXtWlgzgxZUxYFUqMeVJG/vBs+tWwIXKpkH6qW5sUImCbf6yiSABuDUfXnmybo2ORmhZ9KbBdpkVgZuXpdsBmXe8hx3UWaZ1mVmFL4+6VtuHZcP3xtDm8lE4kztHzxB8H3oEN+CJR2PdkPrijx1PFvfpucTPJ33TqyfGOT9AqIvOJbCXTOk43vHcWCJ95Hx6lXK8UXobVo6w3vGq9ur3agDvJK2jhvCmA41vjNe0bvj/vHBq+PHr5T4cHvi/Pb0/Hx9Ib3/Pz+J4qvrc2r8/C8=);lineShape=1;" vertex="1" parent="1">
          <mxGeometry x="456.43375418888036" y="798.8881860865413" width="89.26185127553526" height="68.67806315127518" as="geometry" />
        </mxCell>
        <mxCell id="Ld_wv_T6HuHl0N1Weq52-97" value="" style="shape=stencil(lVbZctswDPwavWJIgCTI5zT9j8zEqT117YzjXn9fuCoVEba37ZuOXQnHLsBJHt62T6+bicPb+XT8vPm+ez5vJ/kwMe8O281pd7arSR4neXg5njafTsevh+f5/vXpgrxcfTl+u3zhx8xjivFC4vBzflArtfz7yccZv98d1vhAmgeCZooMCPY9GQilUA33CZL7607IlTIgJKY0hpQDJblPyEJ5TFoSNb1PKJV4/EMhTQDffJESCQhImbQMeCYG8WjpPer4AEtaI9Xm8AE0uSqF4vB/ZHIT3yK16PCtAnz28TNlEE+rvdzv9Szg+zFYfqOGlCJoQGuUxwI1KqDBTSmPBYpWggIIyfssClXUAguAR0Km0AAh9RKuCBkUSRulqz8wSFoT6VikmKD1NfbXC4FJkG8qVUewRoIcjODKqjBnM2bQcVRQBMaxDMr4faaG8NmPokgMjFPNV96YEJ9JvPEDiKcFEm/kgvDWYnHxQ1lrn5vLJKUGFGE+c4OuEANRG94NlkUh/45H9RTiMV/Bxr9M9rFhuVBEijPFjxEVbBpbTnUsqQoc1kn6rF1yjn3l3t7ISjr+oRVKYN2YSdxosb5XIAtziY4+bvhUEW0WjQPeOgknfPYbbTXzbzO4K231C+RlU85VSAJCyn7nW86oquKtb0Vl0LbohWRbVAE+eGmbuZGOrlZmY+jN0I2y4ENfirdF8b8nzb/i7eL9WPuy2+/nU/H6vT8G26P5CC2PvwA=);lineShape=1;" vertex="1" parent="1">
          <mxGeometry x="544.1548751139676" y="789.2600572111623" width="5.657190089119695" height="11.584734284268052" as="geometry" />
        </mxCell>
        <mxCell id="Ld_wv_T6HuHl0N1Weq52-98" value="" style="shape=stencil(lVfZbttADPwavRJ7L/c5Tf8jQJxaqGsHjnv9fakKq5qUNEbfZJkjHjPkcof49HF8eT8MwX3crpevh5/j6+04xE9DCOP5eLiON3ka4vMQn94u18OX6+X7+XX+/f4yWU5P3y4/pi/8mnGeIk+g4H7PL3IkH/+++Tzbn8bzvb2nkBQgVmoIUMlrQGBKABCiDck3KnkfED15A/BUwj4gOQpFJ025AHumpu09JfD9XG0Gjpzbty+FXNQlgvFXqVBT9gy/z65TusRfOinbgGwTDpVc2wc0qaj2IDV2gOQWyVVNQaAIOGiNqq4pc6/Ctu7cUvSOaCJ2oCNxkXUSLXWhbANEyFrarRADIqa/jQem6gEgEeusJUjoIdgyCaABqoW5WiwADQBu5IIGVEqgrFxXHnInfw/gDXGhD51dgNfaaBSwB9YeuOAcJGmjvvSoIVhXiUMXyx5xnDVAhhgSX6K2AjDyIOJrNqSG+kHk3WzSjJJufYwuACyNrR51D8eAEZMMQzArJQnWg0bq4FDLSchaTPIJj0KSw0MTMdUBEREpmfPK4QNCBpeNSVygib9iQpJAepVh6k1XyxkA6irMhmyJCKCu2wDkwdlRJucqGmWVbV1TpQzGQPVdncsx1+A4LqEvIverCdoEgm0hv+wG26tGtg0huwPKQbavagAJ7mOyLTkd0rQ/gSaV5chsD1F6ClRJamKYFh4SPKp7z3dAiXiU9ZZf7DMF1A42Zdm4PGChUA3WHukiU/QrezAyYm+tO/uIVuJ+Etzliw4T3yWz2CdIsXSa3mNE6BnE43qnL/aOChDpaspnpgIE4eyVIZeu8h37Yr6fsEL/99Lz0F4e/t2w3sbTab6g3f9vb2Tyar7Nxec/);lineShape=1;" vertex="1" parent="1">
          <mxGeometry x="543.1777214170093" y="785.2131154050167" width="14.013079707490533" height="9.894882788418272" as="geometry" />
        </mxCell>
        <mxCell id="Ld_wv_T6HuHl0N1Weq52-99" value="" style="shape=stencil(5VjLctswDPwaXTEE3zyn6X9kJk7tqWtnHPf19wWrSBYge9scOu1Mb7LMJfFYACsO4e5l+/C8Gbx7OZ+OHzdfd4/n7RDeDd7vDtvNaXeWpyHcD+Hu6XjafDgdPx8ex9/PD31lf/p0/NJ3+DbiPFPjjvLu+/iGM6X08837EbDfHZaATM4pQMhU221A8FSjAmQmVwCgUNImFXmTAaARVwWonhoyqdkTaqbg8QleAxrlCACVXFCA5qkgH8QAbVJLlBwARHJJAwoVBGAKOkqtkQ8g05Vi0dRwbkr+dUSyCDmigVR7T2kFYBBXlv2i9RrRlSUoq7gG4IPQ35kTxEgQJk62IIQbr5G+DhAmaKeLFASga6WkLYqRMmArM7FJnIQNAHykoumN89wcZdM0YNZatGkOkNuS06y5XYhBkoU0SdsvIXhN+/UIXYi8aHuoeuQIp48QnzMCzPvNgAT7ZAvkdX16qQVAPKEZ6ywERw0QrwptdFOSnuBB3qqzTUlMQj6UPMVkBhRyoO2VMO03AwIG+FVTqrCeO0CHledA3zKpmV4P67/7bMpzqtebQc2meApaL1nTIXIUAbc7LYpZnzHvgmaFh9O2E1v7K7wG9vTK0cXMbpqmv12caaq+m/VveCpbIJuKbWA9acjpaDuMsIJRVN00lhbFiWgkCsRIjD6wEYBtg+knIGK8FSCqx9Sax7NTNEnVPkTch0UmsdGGEXbVf1TqrQTD35d6umX8Eam3UpP/p9QD7ONoe31N1AA3eKWsspQIAETbjKPMO2CRI2/mrYcSYN2KhUnAHhluptnn6cTrDtvhI9MZ9ST5mDREZagXotUXQjqkFqwGE04BQogasssdYug8WRfr0ZdCmmTvZX1F/Fx9OUuykD1t4soimii7kt5mAAGKl7dfL/waIA+X24yn3X4/XoYs/7e3H/JqvDkJ9z8A);lineShape=1;" vertex="1" parent="1">
          <mxGeometry x="459.14547020478676" y="783.6657208042097" width="7.6962095976621185" height="6.879584863902892" as="geometry" />
        </mxCell>
        <mxCell id="Ld_wv_T6HuHl0N1Weq52-100" value="" style="shape=stencil(rVbbbhpBDP2afbVmPDfPc5r+R6SQgkohIrRN/r5e0VmwgRNVqsTDsuszYx8fX6b08LZ+el1NHN6Oh/331e/N83E9pS8T82a3Xh02R32a0uOUHl72h9W3w/7n7vn0//Vptpyffux/zSe8n3AxU4szisPH3zc0/9Pf15P9drO7sOdKKRv7Rjndt8+BUrLnM6V4H1AqxWIBlVq7D2hMnQ2Aefh4EyBC2YacAryhFxIH6JTlPiCGQCEYRO4UK7iiE1tATxRAHnqjammavQRR6+doE9GFQgeA6HlVJwtItfKaXObOPNxGqPi6vyIDmiRStZlQHjoSR/dqUh4qSF1TXpsFMAmIWgHJuiSdGgIIRcurVOiShKGEBZChNkQ9tmLSNxCgNWeD1js7SpyGKB7QkL4TcbUATSXSdyW2cpVEGbikak5WS1Kog0Yzq9klTkhAHmZtXkkjoBuE2LLUM3XEUqVgWVJ5Z8SSNgkn70Xw9xJXqgd0BCjj8wWgIQBTdZ1MqOASFUdrpQKC1gIKdgQpDZ+VqHMJN3wFNCe+pS38J4D4PJRCCQWdKds85EIN9Pua/A06tBjIWycU2zykRB0MiMS+CbBGhcai1rRNHC/9/LZL47hloBTKIGYePWixzxSRQ36X0d2kgIjD6EDnAQdr4WoLECi7MFaEYV5hTw2+bjJcAHhM+yW9YyG4nd0R2XkvbECfxZsHqoBJndrizCMQgvLshixeLOJVE9IDkBD+cQv+3F4fziv3y2a7PW3sl9/9iq6vTut9evwD);lineShape=1;" vertex="1" parent="1">
          <mxGeometry x="280.11502951332227" y="790.1158833697573" width="9.172224461187625" height="10.615426159479739" as="geometry" />
        </mxCell>
      </root>
    </mxGraphModel>
  </diagram>
</mxfile>
